<svg xmlns="http://www.w3.org/2000/svg" viewBox="0 0 256 256"><path d="M43.17,36.07c-.88,4.15-2,8.25-2.56,12.44a68.93,68.93,0,0,0,0,18.15,73.46,73.46,0,0,0,3.65,15.91,86.87,86.87,0,0,0,11.87,22.19c5.12,7.06,11.53,12.83,17.93,18.67a31.6,31.6,0,0,1,10.53,19.95,26.74,26.74,0,0,1-1,10.45c-.22.78-.63.79-1.36.58A37.63,37.63,0,0,0,76,152.79a5.67,5.67,0,0,0-4.56,1.84,5.78,5.78,0,0,0-1.24,2.2,5.65,5.65,0,0,0-.15,2.52,5.1,5.1,0,0,0,2.78,4.06c4.52,2.57,9,2.25,13.72.39a18.47,18.47,0,0,0,9.71-9.25,39.13,39.13,0,0,0,3.85-20.91,57.07,57.07,0,0,0-1.51-10.56c-1.4-5.39-4.91-9.58-8.86-13.37-.72-.69-.81-1.13.06-1.69,5-3.22,7.69-8.11,9.59-13.55s2.32-11,3-16.68c1.44-11.47,1.45-23,1.77-34.55a49.83,49.83,0,0,1,4.43-18.67,58.16,58.16,0,0,1,9.58-15.14c2.9-3.28,6.2-6.22,9.39-9.25a1.41,1.41,0,0,1,1.38,0,68.74,68.74,0,0,1,16.22,19,50.91,50.91,0,0,1,5.94,14.91,83.71,83.71,0,0,1,1.28,11.71c.28,5,0,9.93.42,14.87.63,8.35,1.51,16.68,2.35,25A38.77,38.77,0,0,0,159,99.09a22.5,22.5,0,0,0,7.34,8.7c1.29.87,1.29,1,.18,2.06-4,3.85-7.42,8.11-8.77,13.58a55.64,55.64,0,0,0-1.29,9.61,45.29,45.29,0,0,0,1.13,14.63c1.28,5,3.3,9.82,7.37,13.1,4.73,3.85,10.25,5.9,16.4,3.67a10.53,10.53,0,0,0,4.28-2.92c1.48-1.72,1.18-5.93-1.78-7.79s-5.8-.86-8.6.18c-2.1.78-2.11,1-2.66-1.15a26.55,26.55,0,0,1,.34-14.68c2.23-7.21,6.86-12.69,12.5-17.46a90.13,90.13,0,0,0,24.82-32.91,74.74,74.74,0,0,0,5.87-23.93A71.27,71.27,0,0,0,215.71,47c-.49-3.24-1.54-6.42-2.34-9.56-.12-.43-.28-.83-.43-1.29l.32-.23q1,.75,2,1.59c9.94,9.47,16.11,20.88,17.62,34.65a65.49,65.49,0,0,1-4.42,31.6,52.93,52.93,0,0,1-2.87,6.76,75.49,75.49,0,0,1-6.24,9.63c-2.71,3.36-5.94,6.3-8.85,9.51a27.06,27.06,0,0,0-3.3,4.44c-.9,1.56-1.4,3.47-.07,5a4.7,4.7,0,0,0,4.91,1.11,6.64,6.64,0,0,0,3.49-2.07,41.39,41.39,0,0,1,6.34-6.42,68.52,68.52,0,0,0,11.65-13.87,86,86,0,0,0,11.74-28.77,11.06,11.06,0,0,1,.38-1,13.37,13.37,0,0,1,.82,1.29A61.69,61.69,0,0,1,252,119.4a53.74,53.74,0,0,1-10.61,28.51,43.52,43.52,0,0,1-14.1,12.83,18.16,18.16,0,0,1-4,1.69c-4.53,1.28-7.81,4.31-10.77,7.7-1.64,1.89-1.12,4.09,1,5.41a7.53,7.53,0,0,0,2.82,1.09c7.29,1,14.43.42,21.11-2.89A43.57,43.57,0,0,0,243,170c.28-.19.55-.42,1-.75a4.28,4.28,0,0,1,.12,1.07c-1.8,11.07-6.29,20.75-15.16,27.91a37.94,37.94,0,0,1-21.69,8.37,128.07,128.07,0,0,1-13.29,0c-4.07-.15-7.62-2.08-11.2-3.85-4.23-2.1-7.6-5.36-11.29-8.22a39.32,39.32,0,0,0-13.95-7.24c-4.12-1.1-8.32-1.29-11.84,1.81a14.39,14.39,0,0,0-4.64,8.33,70.24,70.24,0,0,0-.72,24.45,23.48,23.48,0,0,0,1.84,7.09c1.58,3.24,3.84,5.53,7.68,5.69a9.06,9.06,0,0,0,8.31-4.64,40.54,40.54,0,0,0,2.56-5.8,5.6,5.6,0,0,1,.58-1.21c4.05,9.23,10,15.21,21.05,13.14l.14.37c-.87.89-1.69,1.83-2.56,2.65a63.87,63.87,0,0,1-24.29,13,98.75,98.75,0,0,1-39,3.19c-11.86-1.28-23.16-4.47-33.31-11a104.6,104.6,0,0,1-9-7.16,5,5,0,0,1-.71-1.06C84.89,238.22,91,232.35,95,222.58l.94,2.91c1.1,3.29,2.71,6.18,5.87,8a8.47,8.47,0,0,0,9.64-.72,8.62,8.62,0,0,0,2.16-2.64,20.81,20.81,0,0,0,2.56-9,105.67,105.67,0,0,0,.37-14.12,43.4,43.4,0,0,0-2.23-12.37c-2.74-7.33-8.25-9.39-15.86-7.18A45.88,45.88,0,0,0,81,197.7a35.91,35.91,0,0,1-16.66,8.67,51.29,51.29,0,0,1-16.86.18,40.31,40.31,0,0,1-17.56-6.41,39.82,39.82,0,0,1-15.67-21.71c-.92-2.89-1.49-5.88-2.22-8.82l.46-.25a4.25,4.25,0,0,1,.81.51,26.45,26.45,0,0,0,16.31,6.88,53.43,53.43,0,0,0,8.58,0,15.63,15.63,0,0,0,4.67-1.44c2.32-1,2.75-3.35.89-5.4a42.68,42.68,0,0,0-6.41-5.6,21.13,21.13,0,0,0-4.74-2.22A37.83,37.83,0,0,1,15.9,148.93a57.84,57.84,0,0,1-8.67-16.16,51.08,51.08,0,0,1-2.69-13.16,62.89,62.89,0,0,1,5.62-30.43,3.29,3.29,0,0,1,.26-.49c0-.07.14-.11.39-.3a3.89,3.89,0,0,1,.52,1A82.15,82.15,0,0,0,20.57,114a65.05,65.05,0,0,0,12.28,16.09c1.86,1.73,3.85,3.33,5.72,5a9.94,9.94,0,0,1,1.28,1.75,6.68,6.68,0,0,0,6.29,3.48c3.94-.25,5-2.89,3.15-6a30.43,30.43,0,0,0-5.56-6.83,82.36,82.36,0,0,1-8.31-9.58c-4.71-5.89-7.18-12.83-9.32-19.85a62.89,62.89,0,0,1-2.36-26.95,55,55,0,0,1,17.94-34,15.59,15.59,0,0,1,1.28-1C43.11,36.05,43.25,36.06,43.17,36.07Zm99.35,129c-7.25-3.35-12-8.44-14.29-15.81a24.91,24.91,0,0,1-14.47,15.86c7.27,1.89,11.43,6.74,14.42,13.1,3.13-6.34,7.19-11.07,14.34-13.15Z"/></svg>